<svg width="18" height="18" viewBox="0 0 18 18" fill="none" xmlns="http://www.w3.org/2000/svg">
<path fill-rule="evenodd" clip-rule="evenodd" d="M16.9389 0.868324C16.5484 0.477799 15.9152 0.477799 15.5247 0.868324L9 7.39299L2.47533 0.868324C2.08481 0.477799 1.45165 0.477799 1.06112 0.868323L0.868273 1.06117C0.477749 1.4517 0.477749 2.08486 0.868273 2.47538L7.39294 9.00005L0.868271 15.5247C0.477746 15.9152 0.477747 16.5484 0.868271 16.9389L1.06112 17.1318C1.45164 17.5223 2.08481 17.5223 2.47533 17.1318L9 10.6071L15.5247 17.1318C15.9152 17.5223 16.5484 17.5223 16.9389 17.1318L17.1317 16.9389C17.5223 16.5484 17.5223 15.9152 17.1317 15.5247L10.6071 9.00005L17.1317 2.47538C17.5223 2.08486 17.5223 1.4517 17.1317 1.06117L16.9389 0.868324Z" fill="#2E3C4D"/>
</svg>
